# xmcd
#
# Track frame offsets: 
#        150
#        12202
#        25643
#        37836
#        50615
#        61536
#        74548
#        84605
#        98110
#        112778
#        127686
#        142669
#        154456
#        167153
#        180467
#        190519
#        207354
#
# Disc length: 3024 seconds
#
# Revision: 0
# Processed by: cddbd v1.4PL0 Copyright (c) Steve Scherf et al.
# Submitted via: ExactAudioCopy v0.90b3
#
DISCID=cb0bce11
DTITLE=Janie Frickie - Live At Billy Bob's Texas
DYEAR=1900
DGENRE=Country
TTITLE0=Don't Worry 'Bout Me Baby
TTITLE1=Let's Stop Talking About It
TTITLE2=He's A Heartache
TTITLE3=Any Other Stone
TTITLE4=She's Single Again
TTITLE5=I'll Need Someone To Hold Me
TTITLE6=Do Me With Love
TTITLE7=Your Heart's Not In It
TTITLE8=Somebody Else's Fire
TTITLE9=See-Saw Ride
TTITLE10=You Don't Know Love
TTITLE11=Down To My Last Broken Heart
TTITLE12=Tell Me A Lie
TTITLE13=Quilt Of Dreams
TTITLE14=Bouncin' Back
TTITLE15=It Ain't Easy Being Easy
TTITLE16=Love For Evermore
EXTD=
EXTT0=
EXTT1=
EXTT2=
EXTT3=
EXTT4=
EXTT5=
EXTT6=
EXTT7=
EXTT8=
EXTT9=
EXTT10=
EXTT11=
EXTT12=
EXTT13=
EXTT14=
EXTT15=
EXTT16=
PLAYORDER=
